<svg height="512pt" viewBox="0 0 512 512.00053" width="512pt" xmlns="http://www.w3.org/2000/svg"><path d="m466.296875 6.542969 16.621094-5.910157c7.117187-2.53125 14.554687 2.871094 14.347656 10.425782l-.484375 17.628906c-.066406 2.472656.71875 4.894531 2.226562 6.855469l10.753907 13.976562c4.609375 5.988281 1.765625 14.734375-5.480469 16.871094l-16.917969 4.984375c-2.371093.699219-4.429687 2.195312-5.828125 4.234375l-9.972656 14.550781c-4.269531 6.230469-13.464844 6.230469-17.734375 0l-9.972656-14.550781c-1.398438-2.039063-3.457031-3.535156-5.828125-4.234375l-16.917969-4.984375c-7.246094-2.136719-10.089844-10.882813-5.484375-16.871094l10.757812-13.976562c1.507813-1.960938 2.292969-4.382813 2.226563-6.855469l-.484375-17.628906c-.210938-7.554688 7.230469-12.957032 14.347656-10.425782l16.621094 5.910157c2.328125.828125 4.875.828125 7.203125 0zm0 0" fill="#a3defe"/><path d="m505.460938 460.316406 5.910156 16.621094c2.53125 7.117188-2.875 14.558594-10.425782 14.347656l-17.632812-.484375c-2.472656-.066406-4.894531.71875-6.851562 2.226563l-13.980469 10.757812c-5.988281 4.605469-14.734375 1.761719-16.867188-5.484375l-4.988281-16.917969c-.699219-2.371093-2.195312-4.429687-4.234375-5.828124l-14.550781-9.972657c-6.230469-4.269531-6.230469-13.464843 0-17.734375l14.550781-9.972656c2.039063-1.398438 3.535156-3.457031 4.234375-5.828125l4.988281-16.917969c2.132813-7.246094 10.878907-10.089844 16.867188-5.484375l13.980469 10.757813c1.957031 1.507812 4.378906 2.292968 6.851562 2.226562l17.632812-.484375c7.550782-.210937 12.957032 7.230469 10.425782 14.347657l-5.910156 16.621093c-.828126 2.328125-.828126 4.875 0 7.203125zm0 0" fill="#f7ef87"/><path d="m462.480469 503.785156 13.980469-10.757812c1.957031-1.507813 4.378906-2.292969 6.851562-2.226563l10.339844.285157c-19.652344-13.085938-31.769532-50.613282-28.648438-79.496094l-2.523437-1.945313c-5.988281-4.605469-14.734375-1.765625-16.871094 5.480469l-4.984375 16.921875c-.699219 2.371094-2.195312 4.429687-4.238281 5.828125l-14.546875 9.96875c-6.230469 4.273438-6.230469 13.46875 0 17.738281l14.546875 9.972657c2.042969 1.398437 3.535156 3.457031 4.238281 5.828124l4.984375 16.917969c2.136719 7.246094 10.882813 10.089844 16.871094 5.484375zm0 0" fill="#efd176"/><path d="m452.804688 4.304688-10.332032-3.671876c-7.117187-2.53125-14.554687 2.871094-14.347656 10.425782l.484375 17.628906c.066406 2.472656-.71875 4.894531-2.226563 6.855469l-10.757812 13.976562c-4.605469 5.988281-1.761719 14.734375 5.484375 16.871094l16.917969 4.988281c2.371094.699219 4.429687 2.191406 5.828125 4.234375l9.972656 14.546875c4.269531 6.230469 13.464844 6.230469 17.738281 0l9.96875-14.546875c.957032-1.398437 2.230469-2.53125 3.695313-3.335937-22.21875-15.03125-32.296875-46.304688-32.425781-67.972656zm0 0" fill="#7acefa"/><path d="m47.539062 505.195312-17.285156 6.148438c-7.40625 2.632812-15.144531-2.992188-14.925781-10.84375l.503906-18.339844c.070313-2.574218-.75-5.089844-2.316406-7.128906l-11.1875-14.539062c-4.792969-6.230469-1.835937-15.324219 5.699219-17.546876l17.597656-5.1875c2.46875-.730468 4.609375-2.285156 6.066406-4.40625l10.371094-15.132812c4.441406-6.484375 14.007812-6.484375 18.449219 0l10.371093 15.132812c1.453126 2.121094 3.59375 3.675782 6.0625 4.40625l17.597657 5.1875c7.539062 2.222657 10.496093 11.316407 5.703125 17.546876l-11.1875 14.539062c-1.570313 2.039062-2.386719 4.558594-2.316406 7.128906l.503906 18.339844c.214844 7.855469-7.523438 13.476562-14.925782 10.84375l-17.285156-6.148438c-2.425781-.859374-5.074218-.859374-7.496094 0zm0 0" fill="#8eafe2"/><path d="m2.328125 460.492188 11.1875 14.539062c1.570313 2.039062 2.386719 4.558594 2.316406 7.128906l-.503906 18.339844c-.214844 7.855469 7.523437 13.476562 14.925781 10.84375l17.285156-6.148438c2.425782-.859374 5.070313-.859374 7.496094 0l17.285156 6.148438c4.554688 1.621094 9.230469.109375 12.109376-3.121094-39.019532-17.9375-44.472657-63.644531-37.894532-93.796875-1.726562.804688-3.285156 2.058594-4.472656 3.792969l-10.371094 15.132812c-1.457031 2.121094-3.597656 3.675782-6.066406 4.40625l-17.597656 5.1875c-7.535156 2.222657-10.492188 11.320313-5.699219 17.546876zm0 0" fill="#6a96d7"/><g fill="#f6e3a3"><path d="m377.054688 471.515625c-3.355469 0-6.75-.945313-9.765626-2.917969-33.339843-21.816406-72.453124-75.191406-78.261718-84.105468-5.386719-8.265626-3.054688-19.332032 5.214844-24.722657 8.265624-5.386719 19.335937-3.050781 24.71875 5.214844 6.777343 10.394531 42.320312 56.980469 67.890624 73.714844 8.257813 5.402343 10.570313 16.472656 5.167969 24.730469-3.425781 5.238281-9.140625 8.085937-14.964843 8.085937zm0 0"/><path d="m377.054688 471.515625c-3.355469 0-6.75-.945313-9.765626-2.917969-33.339843-21.816406-72.453124-75.191406-78.261718-84.105468-5.386719-8.265626-3.054688-19.332032 5.214844-24.722657 8.265624-5.386719 19.335937-3.050781 24.71875 5.214844 6.777343 10.394531 42.320312 56.980469 67.890624 73.714844 8.257813 5.402343 10.570313 16.472656 5.167969 24.730469-3.425781 5.238281-9.140625 8.085937-14.964843 8.085937zm0 0"/><path d="m467.121094 364.027344c-5.824219 0-11.535156-2.84375-14.964844-8.085938-14.339844-21.914062-59.464844-36.636718-74.703125-34.289062-9.746094 1.496094-18.871094-5.1875-20.375-14.941406-1.5-9.75 5.191406-18.871094 14.941406-20.375 27.621094-4.246094 87.316407 15.328124 110.035157 50.042968 5.402343 8.257813 3.089843 19.328125-5.167969 24.730469-3.015625 1.976563-6.410157 2.917969-9.765625 2.917969zm0 0"/><path d="m380.6875 230.332031c-11.277344 0-22.695312-2.695312-34.195312-8.09375-8.933594-4.191406-12.777344-14.828125-8.585938-23.761719 4.191406-8.933593 14.832031-12.773437 23.761719-8.585937 27 12.667969 50.148437-.21875 82.554687-45.984375 5.703125-8.054688 16.851563-9.957031 24.90625-4.257812 8.050782 5.703124 9.957032 16.855468 4.253906 24.90625-18.699218 26.402343-34.550781 42.832031-51.394531 53.261718-13.464843 8.339844-27.273437 12.515625-41.300781 12.515625zm0 0"/><path d="m143.777344 472.003906c-1.507813 0-3.023438-.03125-4.554688-.09375-9.855468-.40625-17.519531-8.730468-17.113281-18.589844.40625-9.855468 8.726563-17.507812 18.589844-17.109374 20.359375.832031 36.742187-6.453126 46.101562-20.535157 9.015625-13.5625 9.886719-31.273437 2.328125-47.375-4.191406-8.933593-.347656-19.570312 8.585938-23.761719 8.929687-4.191406 19.570312-.347656 23.761718 8.582032 12.90625 27.503906 11.066407 58.28125-4.917968 82.332031-15.542969 23.382813-41.890625 36.550781-72.78125 36.550781zm0 0"/></g><path d="m235.058594 377.46875 142.410156-142.410156c14.585938-62.289063-2.390625-130.472656-50.953125-179.039063-74.695313-74.691406-195.800781-74.691406-270.492187 0-74.695313 74.695313-74.695313 195.800781 0 270.496094 48.5625 48.5625 116.746093 65.539063 179.035156 50.953125zm0 0" fill="#8eafe2"/><path d="m.511719 205.234375c16.277343 12.117187 38.976562 24.417969 64.101562 24.417969 35.546875 0 66.261719-24.625 80.765625-38.523438 5.273438-5.050781 5.269532-13.488281 0-18.539062-14.503906-13.898438-45.21875-38.523438-80.765625-38.523438-23.78125 0-45.390625 11.019532-61.4375 22.476563-2.953125 16.070312-3.847656 32.441406-2.664062 48.691406zm0 0" fill="#8ee2cf"/><path d="m85.925781 189.359375h-42.632812c-4.140625 0-7.5-3.355469-7.5-7.5 0-4.140625 3.359375-7.5 7.5-7.5h42.632812c4.144531 0 7.5 3.359375 7.5 7.5 0 4.144531-3.355469 7.5-7.5 7.5zm0 0" fill="#6fce91"/><path d="m205.234375.511719c-16.25-1.183594-32.621094-.289063-48.691406 2.664062-11.453125 16.046875-22.472657 37.65625-22.476563 61.433594 0 35.550781 24.625 66.265625 38.523438 80.769531 5.050781 5.269532 13.488281 5.269532 18.539062 0 13.898438-14.503906 38.523438-45.21875 38.523438-80.769531 0-25.121094-12.300782-47.820313-24.417969-64.097656zm0 0" fill="#8ee2cf"/><path d="m181.859375 93.425781c-4.140625 0-7.5-3.355469-7.5-7.5v-42.632812c0-4.140625 3.359375-7.5 7.5-7.5 4.144531 0 7.5 3.359375 7.5 7.5v42.632812c0 4.144531-3.355469 7.5-7.5 7.5zm0 0" fill="#6fce91"/><path d="m45.183594 67.808594c1.652344 21.296875 7.9375 52.902344 29.371094 74.332031 25.136718 25.136719 64.269531 29.445313 84.351562 29.875 7.296875.15625 13.265625-5.8125 13.109375-13.109375-.429687-20.082031-4.738281-59.214844-29.875-84.351562-21.433594-21.433594-53.03125-27.71875-74.332031-29.371094-4.039063 3.421875-7.976563 7.027344-11.785156 10.835937-3.8125 3.8125-7.417969 7.75-10.839844 11.789063zm0 0" fill="#8ee2cf"/><path d="m123.421875 130.921875c-1.917969 0-3.839844-.730469-5.300781-2.195313l-30.148438-30.148437c-2.929687-2.929687-2.929687-7.675781 0-10.605469 2.929688-2.929687 7.679688-2.929687 10.605469 0l30.148437 30.148438c2.929688 2.925781 2.929688 7.675781 0 10.605468-1.464843 1.464844-3.386718 2.195313-5.304687 2.195313zm0 0" fill="#6fce91"/><path d="m144.917969 144.917969c52.140625-52.140625 130.480469-48.347657 197.660156 8.839843 69.886719 59.492188 93.804687 132.078126 18.53125 207.351563-75.277344 75.273437-147.859375 51.355469-207.351563-18.53125-57.1875-67.179687-60.980468-145.519531-8.839843-197.660156zm0 0" fill="#f7ef87"/><path d="m119.167969 181.507812c-22.332031 48.472657-10.398438 108.222657 34.589843 161.070313 59.328126 69.691406 131.671876 93.660156 206.722657 19.144531-146.304688 35.234375-222.160157-89.304687-241.3125-180.214844zm0 0" fill="#efd176"/><path d="m220.800781 396.867188c43.738281 20.152343 91.457031 13.09375 140.308594-35.757813s55.914063-96.570313 35.757813-140.308594zm0 0" fill="#fcf2d0"/><path d="m360.476562 361.722656c-39.023437 9.398438-73.03125 7.421875-102.292968-2.242187l-37.386719 37.386719c43.554687 20.066406 91.046875 13.136718 139.679687-35.144532zm0 0" fill="#f6e3a3"/><path d="m209.761719 235.59375c-4.140625 0-7.5-3.359375-7.5-7.5v-18.332031c0-4.140625 3.359375-7.5 7.5-7.5h18.332031c4.144531 0 7.5 3.359375 7.5 7.5s-3.355469 7.5-7.5 7.5h-10.832031v10.832031c0 4.140625-3.359375 7.5-7.5 7.5zm0 0" fill="#efd176"/><path d="m262.167969 183.1875c-4.140625 0-7.5-3.359375-7.5-7.5v-18.335938c0-4.140624 3.359375-7.5 7.5-7.5h18.335937c4.140625 0 7.5 3.359376 7.5 7.5 0 4.144532-3.359375 7.5-7.5 7.5h-10.835937v10.835938c0 4.140625-3.355469 7.5-7.5 7.5zm0 0" fill="#efd176"/><path d="m157.351562 288.003906c-4.140624 0-7.5-3.359375-7.5-7.5v-18.335937c0-4.140625 3.359376-7.5 7.5-7.5h18.332032c4.144531 0 7.5 3.359375 7.5 7.5 0 4.144531-3.355469 7.5-7.5 7.5h-10.832032v10.835937c0 4.140625-3.355468 7.5-7.5 7.5zm0 0" fill="#efd176"/><path d="m245.371094 322.050781c-9.859375-9.859375-27.890625-7.816406-40.269532 4.5625-12.382812 12.382813-14.425781 30.414063-4.566406 40.273438s27.886719 7.8125 40.269532-4.566407c12.378906-12.382812 14.425781-30.410156 4.566406-40.269531zm0 0" fill="#eda1ab"/><path d="m322.054688 245.371094c9.859374 9.859375 27.886718 7.816406 40.269531-4.566406 12.378906-12.378907 14.425781-30.410157 4.566406-40.269532s-27.890625-7.8125-40.269531 4.566406c-12.382813 12.382813-14.425782 30.410157-4.566406 40.269532zm0 0" fill="#eda1ab"/><path d="m218.210938 321.09375c-1.917969 0-3.839844-.734375-5.300782-2.199219l-7.917968-7.914062c-2.929688-2.929688-2.929688-7.679688 0-10.609375 2.929687-2.929688 7.675781-2.929688 10.605468 0l7.917969 7.917968c2.929687 2.929688 2.929687 7.679688 0 10.605469-1.464844 1.464844-3.386719 2.199219-5.304687 2.199219zm0 0" fill="#4e5660"/><path d="m313.59375 225.710938c-1.917969 0-3.839844-.730469-5.304688-2.195313l-7.914062-7.917969c-2.929688-2.929687-2.929688-7.679687 0-10.605468 2.929688-2.929688 7.675781-2.929688 10.605469 0l7.917969 7.914062c2.929687 2.929688 2.929687 7.679688 0 10.609375-1.464844 1.464844-3.386719 2.195313-5.304688 2.195313zm0 0" fill="#4e5660"/><path d="m255.304688 286.382812c-.710938 0-1.425782-.023437-2.136719-.074218-4.132813-.285156-7.253907-3.863282-6.96875-7.996094.28125-4.132812 3.871093-7.257812 7.996093-6.96875 4.644532.316406 9.199219-1.382812 12.480469-4.667969 3.285157-3.285156 4.988281-7.832031 4.667969-12.484375-.285156-4.128906 2.835938-7.710937 6.96875-7.996094 4.128906-.28125 7.714844 2.839844 7.996094 6.972657.617187 8.976562-2.671875 17.765625-9.023438 24.117187-5.84375 5.84375-13.757812 9.097656-21.980468 9.097656zm0 0" fill="#4e5660"/><path d="m324.460938 325.703125c-36.269532 36.269531-84.574219 69.449219-107.289063 81.425781-8.726563 4.601563-19.535156 1.253906-24.132813-7.472656-4.601562-8.726562-1.257812-19.53125 7.46875-24.136719 20.132813-10.613281 65.421876-41.816406 98.6875-75.082031 33.265626-33.265625 64.472657-78.554688 75.085938-98.6875 4.597656-8.726562 15.40625-12.070312 24.132812-7.472656 8.726563 4.605468 12.074219 15.410156 7.472657 24.136718-11.976563 22.714844-45.15625 71.015626-81.425781 107.289063zm0 0" fill="#e26e7e"/><path d="m469.128906 139.652344c-8.050781-5.703125-19.203125-3.800782-24.90625 4.253906-2.523437 3.566406-4.988281 6.910156-7.40625 10.082031 4.722656 7.167969 15.898438 17.691407 28.324219 21.78125 2.695313-3.53125 5.433594-7.246093 8.242187-11.214843 5.703126-8.050782 3.796876-19.203126-4.253906-24.902344zm0 0" fill="#8ee2cf"/><path d="m452.15625 355.941406c3.429688 5.242188 9.140625 8.085938 14.964844 8.085938 3.355468 0 6.75-.941406 9.765625-2.917969 8.257812-5.402344 10.570312-16.472656 5.167969-24.730469-3.480469-5.320312-7.835938-10.28125-12.804688-14.855468-10.699219 4.097656-21.238281 16.484374-24.929688 25.53125 3.113282 2.800781 5.796876 5.769531 7.835938 8.886718zm0 0" fill="#8ee2cf"/><path d="m392.019531 463.429688c5.402344-8.257813 3.089844-19.328126-5.167969-24.730469-3.300781-2.160157-6.765624-4.824219-10.316406-7.835938-11.566406 5.703125-20.046875 17.339844-23.730468 26.695313 4.871093 4.167968 9.734374 7.929687 14.484374 11.039062 3.015626 1.972656 6.410157 2.917969 9.765626 2.917969 5.824218 0 11.539062-2.847656 14.964843-8.085937zm0 0" fill="#8ee2cf"/><path d="m155.417969 435.285156c-4.617188.816406-9.539063 1.136719-14.71875.925782-9.859375-.398438-18.183594 7.253906-18.589844 17.109374-.40625 9.859376 7.257813 18.183594 17.113281 18.589844 1.53125.0625 3.046875.09375 4.554688.09375 6.359375 0 12.523437-.566406 18.445312-1.660156 2.152344-13.578125-2.703125-27.691406-6.804687-35.058594zm0 0" fill="#8ee2cf"/></svg>