<svg id="Planet" height="512" viewBox="0 0 64 64" width="512" xmlns="http://www.w3.org/2000/svg"><path d="m54.52 13.72h-.01a21.709 21.709 0 0 1 -3.51-.72c-7-2-11-4-22 0-6.66 2.42-15.15 2.64-20.81 2.44a28.656 28.656 0 0 0 -2.91 5.26c5.26-.35 15.79-.58 23.72 2.3 11 4 15 2 22 0a22.2 22.2 0 0 1 8.3-.79 28.849 28.849 0 0 0 -4.78-8.49z" fill="#ffa733"/><path d="m57 32c-18-1-27 11.18-50.76 11.18-.34 0-.68 0-1.01-.01a28.559 28.559 0 0 0 2.63 4.91 125.947 125.947 0 0 1 16.14-2.08c15-1 22 1 29 1 1.24 0 2.56-.06 3.92-.16h.01a28.984 28.984 0 0 0 2.33-4.94 28.511 28.511 0 0 0 1.44-5.7 27.972 27.972 0 0 0 .29-3.9q-1.86-.18-3.99-.3z" fill="#ffa733"/><path d="m59.3 22.21a22.2 22.2 0 0 0 -8.3.79c-7 2-11 4-22 0-7.93-2.88-18.46-2.65-23.72-2.3a28.185 28.185 0 0 0 -1.44 4.36 29.089 29.089 0 0 0 0 13.88 27.554 27.554 0 0 0 1.39 4.23c.33.01.67.01 1.01.01 23.76 0 32.76-12.18 50.76-11.18q2.13.12 3.99.3c.01-.1.01-.2.01-.3a28.858 28.858 0 0 0 -1.7-9.79z" fill="#ee8700"/><path d="m60.7 36.2a28.511 28.511 0 0 1 -1.44 5.7c-1.04.07-2.13.1-3.26.1-7.18 0-13-1.34-13-3s5.82-3 13-3c1.66 0 3.24.07 4.7.2z" fill="#ff9811"/><path d="m7 25c13.25 0 24 3.13 24 7s-10.75 7-24 7c-1.07 0-2.13-.02-3.16-.06a29.089 29.089 0 0 1 0-13.88c1.03-.04 2.09-.06 3.16-.06z" fill="#ff9811"/><path d="m53 47c1.24 0 2.56-.06 3.92-.16a28.95 28.95 0 0 1 -9.07 9.45 60.128 60.128 0 0 0 -15.85-2.29 55.671 55.671 0 0 0 -15.73 2.37 29.136 29.136 0 0 1 -8.41-8.29 125.947 125.947 0 0 1 16.14-2.08c15-1 22 1 29 1z" fill="#ee8700"/><path d="m32 54a60.128 60.128 0 0 1 15.85 2.29 29.03 29.03 0 0 1 -31.58.08 55.671 55.671 0 0 1 15.73-2.37z" fill="#ffa733"/><ellipse cx="40" cy="18" fill="#ff9811" rx="9" ry="4"/><path d="m32 3a28.922 28.922 0 0 1 22.51 10.72 21.709 21.709 0 0 1 -3.51-.72c-7-2-11-4-22 0-6.66 2.42-15.15 2.64-20.81 2.44a28.966 28.966 0 0 1 23.81-12.44z" fill="#ee8700"/></svg>