<?xml version="1.0" encoding="iso-8859-1"?>
<!-- Generator: Adobe Illustrator 19.0.0, SVG Export Plug-In . SVG Version: 6.00 Build 0)  -->
<svg version="1.1" id="Capa_1" xmlns="http://www.w3.org/2000/svg" xmlns:xlink="http://www.w3.org/1999/xlink" x="0px" y="0px"
	 viewBox="0 0 512 512" style="enable-background:new 0 0 512 512;" xml:space="preserve">
<path style="fill:#C0E3F0;" d="M367.034,209.024c0-61.322-49.712-111.034-111.034-111.034s-111.034,49.712-111.034,111.034v25.624
	h222.069v-25.624H367.034z"/>
<path style="fill:#A3CFE3;" d="M255.999,97.99c-3.478,0-6.916,0.168-10.311,0.481c56.487,5.203,100.723,52.708,100.723,110.554
	v25.624h20.623v-25.624C367.034,147.701,317.323,97.99,255.999,97.99z"/>
<path style="fill:#FEB756;" d="M392.659,239.804v-17.967c0-7.076-5.736-12.811-12.811-12.811H132.15
	c-7.076,0-12.812,5.736-12.812,12.811v17.966L392.659,239.804z"/>
<path style="fill:#FA8043;" d="M379.847,209.025h-20.623c7.076,0,12.812,5.736,12.812,12.811v17.967h20.623v-17.967
	C392.659,214.761,386.923,209.025,379.847,209.025z"/>
<path style="fill:#C0E3F0;" d="M196.212,388.385c0,14.152-11.472,25.625-25.625,25.625c-14.152,0-25.625-11.472-25.625-25.625
	v-10.024h51.248v10.024H196.212z"/>
<path style="fill:#A3CFE3;" d="M175.59,378.362v10.024c0,10.482-6.297,19.489-15.313,23.458c3.156,1.389,6.641,2.166,10.311,2.166
	c14.152,0,25.625-11.472,25.625-25.624v-10.024H175.59V378.362z"/>
<path style="fill:#C0E3F0;" d="M281.624,388.385c0,14.152-11.472,25.625-25.624,25.625c-14.152,0-25.625-11.472-25.625-25.625
	v-10.024h51.248V388.385z"/>
<path style="fill:#A3CFE3;" d="M261.001,378.362v10.024c0,10.482-6.297,19.489-15.312,23.458c3.156,1.389,6.641,2.166,10.311,2.166
	c14.152,0,25.624-11.472,25.624-25.624v-10.024h-20.623V378.362z"/>
<path style="fill:#C0E3F0;" d="M367.035,388.385c0,14.152-11.472,25.625-25.624,25.625c-14.152,0-25.625-11.472-25.625-25.625
	v-10.024h51.248L367.035,388.385L367.035,388.385z"/>
<path style="fill:#A3CFE3;" d="M346.413,378.362v10.024c0,10.482-6.297,19.489-15.313,23.458c3.155,1.389,6.642,2.166,10.311,2.166
	c14.152,0,25.625-11.472,25.625-25.624v-10.024h-20.623V378.362z"/>
<path style="fill:#FEB756;" d="M127.882,344.335v37.864c0,3.417,2.77,6.187,6.187,6.187H377.93c3.417,0,6.187-2.77,6.187-6.187
	v-37.864H127.882z"/>
<path style="fill:#FA8043;" d="M363.494,344.335v37.864c0,3.417-2.77,6.187-6.187,6.187h20.622c3.417,0,6.187-2.77,6.187-6.187
	v-37.864H363.494z"/>
<g>
	<path style="fill:#4DBBEB;" d="M178.321,388.385v-17.082c0-4.271-3.462-7.733-7.733-7.733s-7.733,3.463-7.733,7.733v17.082H178.321
		z"/>
	<path style="fill:#4DBBEB;" d="M263.732,388.385v-17.082c0-4.271-3.461-7.733-7.733-7.733s-7.733,3.463-7.733,7.733v17.082H263.732
		z"/>
	<path style="fill:#4DBBEB;" d="M349.142,388.385v-17.082c0-4.271-3.461-7.733-7.733-7.733s-7.733,3.463-7.733,7.733v17.082H349.142
		z"/>
</g>
<path style="fill:#57555C;" d="M420.418,320.058c0,18.869-15.296,34.164-34.164,34.164H127.881
	c-18.869,0-34.164-15.296-34.164-34.164v-11.469h326.701V320.058z"/>
<path style="fill:#4B494F;" d="M399.795,308.588v11.469c0,18.869-15.296,34.164-34.164,34.164h20.623
	c18.869,0,34.164-15.296,34.164-34.164v-11.469H399.795z"/>
<path style="fill:#4DBBEB;" d="M505.803,320.058c3.592,0,6.454-3.053,6.179-6.636c-3.386-44.069-40.219-78.775-85.157-78.775H85.175
	c-44.938,0-81.771,34.705-85.157,78.775c-0.275,3.582,2.586,6.636,6.179,6.636H505.803z"/>
<g>
	<circle style="fill:#E4F1FB;" cx="255.998" cy="277.352" r="17.082"/>
	<circle style="fill:#E4F1FB;" cx="341.417" cy="277.352" r="17.082"/>
	<circle style="fill:#E4F1FB;" cx="426.825" cy="277.352" r="17.082"/>
	<circle style="fill:#E4F1FB;" cx="170.59" cy="277.352" r="17.082"/>
	<circle style="fill:#E4F1FB;" cx="85.181" cy="277.352" r="17.082"/>
</g>
<path style="fill:#38A1D9;" d="M511.981,313.422c-3.386-44.069-40.219-78.775-85.157-78.775h-20.623
	c44.938,0,81.771,34.705,85.157,78.775c0.275,3.582-2.586,6.636-6.179,6.636h20.623
	C509.396,320.058,512.257,317.004,511.981,313.422z"/>
<g>
	<path style="fill:#C9E3F7;" d="M426.823,260.272c-3.879,0-7.444,1.307-10.311,3.485c4.107,3.12,6.771,8.041,6.771,13.596
		s-2.664,10.476-6.771,13.596c2.868,2.178,6.432,3.485,10.311,3.485c9.434,0,17.082-7.648,17.082-17.082
		C443.905,267.92,436.257,260.272,426.823,260.272z"/>
	<path style="fill:#C9E3F7;" d="M341.411,260.272c-3.879,0-7.444,1.307-10.31,3.485c4.107,3.12,6.771,8.041,6.771,13.596
		s-2.664,10.476-6.771,13.596c2.868,2.178,6.432,3.485,10.31,3.485c9.434,0,17.082-7.648,17.082-17.082
		C358.492,267.92,350.845,260.272,341.411,260.272z"/>
	<path style="fill:#C9E3F7;" d="M255.998,260.272c-3.878,0-7.443,1.307-10.31,3.485c4.107,3.12,6.771,8.041,6.771,13.596
		s-2.664,10.476-6.771,13.596c2.868,2.178,6.432,3.485,10.31,3.485c9.434,0,17.082-7.648,17.082-17.082
		C273.08,267.92,265.432,260.272,255.998,260.272z"/>
	<path style="fill:#C9E3F7;" d="M170.586,260.272c-3.878,0-7.443,1.307-10.31,3.485c4.107,3.12,6.771,8.041,6.771,13.596
		s-2.664,10.476-6.771,13.596c2.868,2.178,6.432,3.485,10.31,3.485c9.434,0,17.082-7.648,17.082-17.082
		C187.667,267.92,180.019,260.272,170.586,260.272z"/>
	<path style="fill:#C9E3F7;" d="M85.173,260.272c-3.879,0-7.443,1.307-10.311,3.485c4.107,3.12,6.771,8.041,6.771,13.596
		s-2.664,10.476-6.771,13.596c2.868,2.178,6.432,3.485,10.311,3.485c9.434,0,17.082-7.648,17.082-17.082
		C102.255,267.92,94.607,260.272,85.173,260.272z"/>
</g>
<g>
</g>
<g>
</g>
<g>
</g>
<g>
</g>
<g>
</g>
<g>
</g>
<g>
</g>
<g>
</g>
<g>
</g>
<g>
</g>
<g>
</g>
<g>
</g>
<g>
</g>
<g>
</g>
<g>
</g>
</svg>
